<svg id="グループ_28" data-name="グループ 28" xmlns="http://www.w3.org/2000/svg" width="125.357" height="41.498" viewBox="0 0 125.357 41.498">
  <text id="石窯パン" transform="translate(42.69 11)" fill="#fff" font-size="12" font-family="TsukuARdGothic-Regular, Tsukushi A Round Gothic"><tspan x="0" y="0">石窯パン</tspan></text>
  <path id="パス_1" data-name="パス 1" d="M100.939,202.835a2.992,2.992,0,0,1-2.1-.856,2.345,2.345,0,0,1-.661-1.574,2.606,2.606,0,0,1,.277-1.05l-.056.11v-23.2a.427.427,0,0,1-.252.027.9.9,0,0,0-.253-.027,2.809,2.809,0,0,1-1.913-.636,2,2,0,0,1-.731-1.574,3.066,3.066,0,0,1,1.354-2.32,13.071,13.071,0,0,1,3.287-1.907,24.7,24.7,0,0,1,4.006-1.27,16.32,16.32,0,0,1,3.508-.47,12.505,12.505,0,0,1,4.668.828,11.655,11.655,0,0,1,3.536,2.156,9.582,9.582,0,0,1,2.238,2.927,7.12,7.12,0,0,1,.773,3.094,7.891,7.891,0,0,1-1.105,3.9,11.814,11.814,0,0,1-2.873,3.4,10.221,10.221,0,0,1,3.951,3.536,7.983,7.983,0,0,1,.719,7.348,10.423,10.423,0,0,1-1.6,2.763,12.231,12.231,0,0,1-2.4,2.265,11.7,11.7,0,0,1-2.92,1.547,20.449,20.449,0,0,1-4.105.828,42.639,42.639,0,0,1-4.326.222h-1.488c-.479,0-.975-.02-1.488-.056Zm2.824-20.553q.772,0,1.492.029t1.492.083a8.206,8.206,0,0,0,1.823-.415,10.523,10.523,0,0,0,2.127-.967,6.487,6.487,0,0,0,1.74-1.491,3.149,3.149,0,0,0,.718-2.045,3.5,3.5,0,0,0-.552-1.988,4.4,4.4,0,0,0-1.436-1.354,7.56,7.56,0,0,0-1.934-.8,8.275,8.275,0,0,0-2.1-.276,10.271,10.271,0,0,0-3.37.553Zm8.84,6.8a10.379,10.379,0,0,0-2.6-1.187,16.065,16.065,0,0,0-2.928-.58c-.516.074-1.05.137-1.6.193s-1.124.083-1.713.083v10.442q1.215,0,3.039-.138a14.78,14.78,0,0,0,3.508-.691,8.154,8.154,0,0,0,2.9-1.629,3.752,3.752,0,0,0,1.215-2.957,4.58,4.58,0,0,0-.441-2.016A3.777,3.777,0,0,0,112.6,189.078Z" transform="translate(-95.255 -162.056)" fill="#ed1c24"/>
  <path id="パス_2" data-name="パス 2" d="M126.249,183.621a4.63,4.63,0,0,1-1.464-1.189,2.109,2.109,0,0,1-.414-1.246,2.074,2.074,0,0,1,.745-1.605,2.831,2.831,0,0,1,1.955-.665,5.024,5.024,0,0,1,1.886.443,6.669,6.669,0,0,1,1.778,1.051,17.29,17.29,0,0,1,3.442-2.213,8.426,8.426,0,0,1,3.674-.832,7.938,7.938,0,0,1,1.685.277,9.318,9.318,0,0,1,2.21.856,7.118,7.118,0,0,1,1.906,1.492,3.062,3.062,0,0,1,.829,2.127,2.043,2.043,0,0,1-.746,1.63,2.674,2.674,0,0,1-1.795.635,2.285,2.285,0,0,1-1.271-.322,9.3,9.3,0,0,1-1-.755,6.4,6.4,0,0,0-.911-.727,1.787,1.787,0,0,0-.967-.35,3.164,3.164,0,0,0-1.436.441,14.082,14.082,0,0,0-1.658,1.05,18.359,18.359,0,0,0-1.63,1.353q-.8.748-1.353,1.3v14.475a2.579,2.579,0,0,1-.9,2.045,2.855,2.855,0,0,1-1.778.663,2.663,2.663,0,0,1-1.75-.637,2.832,2.832,0,0,1-.929-1.91v-17.33Z" transform="translate(-95.255 -162.056)" fill="#ed1c24"/>
  <path id="パス_3" data-name="パス 3" d="M165.42,195.764a3.82,3.82,0,0,1,1.629-.276,2.719,2.719,0,0,1,1.271.386,2.463,2.463,0,0,1,.829.857,2.227,2.227,0,0,1,.3,1.132,2.124,2.124,0,0,1-.387,1.188,3.727,3.727,0,0,1-1.215,1.077,28.93,28.93,0,0,1-5,2.348,15.8,15.8,0,0,1-5.387.967,11.96,11.96,0,0,1-3.26-.469,10.4,10.4,0,0,1-3.094-1.465,11.52,11.52,0,0,1-3.618-4.5,13.412,13.412,0,0,1-1.3-5.719,13.9,13.9,0,0,1,1.132-5.524,9.646,9.646,0,0,1,3.618-4.31,18.358,18.358,0,0,1,4.31-2.21,14.2,14.2,0,0,1,4.807-.829,12.2,12.2,0,0,1,2.6.277,6.874,6.874,0,0,1,2.266.966,7.862,7.862,0,0,1,3.038,3.785,6.47,6.47,0,0,1,.442,2.321,6.571,6.571,0,0,1-.166,1.491,4.153,4.153,0,0,1-.607,1.381,7.653,7.653,0,0,1-2.266,2.293,18.2,18.2,0,0,1-3.149,1.685,28.439,28.439,0,0,1-3.536,1.215q-1.822.5-3.425.885-1.713.442-2.182.552a3.823,3.823,0,0,1-.58.111,6.163,6.163,0,0,0,2.209,2.541,5.5,5.5,0,0,0,3.536.774,9.947,9.947,0,0,0,3.674-1.023A36.722,36.722,0,0,0,165.42,195.764Zm-10.166-11.106a6.307,6.307,0,0,0-2.707,2.514,8,8,0,0,0-.995,3.509c.111-.036.3-.092.58-.166s.691-.193,1.244-.36,1.344-.4,2.375-.69q.552-.165,1.658-.47t2.237-.717a13.866,13.866,0,0,0,2.1-.967,3.1,3.1,0,0,0,1.3-1.216,2.362,2.362,0,0,0-.718-2.21,3.271,3.271,0,0,0-1.989-.607,8.749,8.749,0,0,0-2.707.469A21.178,21.178,0,0,0,155.254,184.658Z" transform="translate(-95.255 -162.056)" fill="#ed1c24"/>
  <path id="パス_4" data-name="パス 4" d="M195.42,199.962a2.49,2.49,0,0,1,.137,1.575,2.24,2.24,0,0,1-.773,1.215,2.671,2.671,0,0,1-1.464.553,3.463,3.463,0,0,1-1.879-.414c-.295-.3-.58-.6-.856-.912a7.068,7.068,0,0,1-.691-.911,10.41,10.41,0,0,1-3.729,1.906,16.391,16.391,0,0,1-3.784.414,13.763,13.763,0,0,1-2.9-.3,8.52,8.52,0,0,1-5.829-4.779,10.745,10.745,0,0,1-.884-4.31,13.774,13.774,0,0,1,.691-4.391,15.7,15.7,0,0,1,1.906-3.868,19.771,19.771,0,0,1,2.79-3.288,22.612,22.612,0,0,1,3.4-2.651,9.339,9.339,0,0,1,1.079-.5,15.661,15.661,0,0,1,1.574-.524,14.434,14.434,0,0,1,1.823-.387,12.533,12.533,0,0,1,1.823-.139,10.487,10.487,0,0,1,3.067.415,3.069,3.069,0,0,1,1.961,2.017v2.762q0,1.105-.028,1.851t-.027,1.243v.939q0,1.935.11,4.006t.387,4.06a5.525,5.525,0,0,0,.524,1.437,14.011,14.011,0,0,0,.857,1.492h-.055c.257.405.47.737.635.994S195.493,199.889,195.42,199.962Zm-7.459-3.923a23.561,23.561,0,0,1-.553-4.005q-.111-2.071-.11-4.116,0-1.436.055-2.6t.055-2.266a7.468,7.468,0,0,0-1.9.5q-.969.387-1.355.552a8.62,8.62,0,0,0-2.679,1.879,11.256,11.256,0,0,0-1.962,2.707,12.687,12.687,0,0,0-1.132,3.121,8.01,8.01,0,0,0-.082,3.177,3.785,3.785,0,0,0,.855,2.017,4.567,4.567,0,0,0,1.63,1.215,4.946,4.946,0,0,0,2.017.414,6.51,6.51,0,0,0,2.072-.331A26.114,26.114,0,0,0,187.961,196.039Z" transform="translate(-95.255 -162.056)" fill="#ed1c24"/>
  <path id="パス_5" data-name="パス 5" d="M219.949,198.361a3.762,3.762,0,0,1,.526.994,2.82,2.82,0,0,1,.137.829,2.228,2.228,0,0,1-.69,1.629,2.426,2.426,0,0,1-1.8.691,3.121,3.121,0,0,1-2.265-.995l-.663-.663a10.615,10.615,0,0,1-3.619,1.962,14.006,14.006,0,0,1-4.227.635,11.081,11.081,0,0,1-4.474-.939,8.785,8.785,0,0,1-3.592-2.873,11.337,11.337,0,0,1-1.547-3.315,13.021,13.021,0,0,1-.5-3.536,19.239,19.239,0,0,1,.387-3.839,13.743,13.743,0,0,1,1.27-3.619,9.209,9.209,0,0,1,1.989-2.542,13.572,13.572,0,0,1,2.707-1.934,17.416,17.416,0,0,1,2.873-1.16,11.952,11.952,0,0,1,3.094-.552q1.215,0,2.376.027a10.374,10.374,0,0,1,2.265.3q0-1.545-.027-2.79t-.027-2.4q0-1.713-.028-2.9t-.028-1.74a2.992,2.992,0,0,1,1.022-1.74,2.671,2.671,0,0,1,1.685-.58,2.778,2.778,0,0,1,1.63.524,3.216,3.216,0,0,1,1.133,1.63v28.4l.332.442Zm-5.69-3.206v-5q0-1.408-.027-2.79t-.029-2.43l-.662-.553q-.72-.165-1.437-.276a9.048,9.048,0,0,0-1.382-.111,10.244,10.244,0,0,0-2.486.3,7.726,7.726,0,0,0-2.265.967,6.894,6.894,0,0,0-1.823,1.685,7.092,7.092,0,0,0-1.16,2.4,8.3,8.3,0,0,0-.276,4.861,5.211,5.211,0,0,0,2.154,3.039,5.778,5.778,0,0,0,3.675.829,8.1,8.1,0,0,0,4.281-1.823Z" transform="translate(-95.255 -162.056)" fill="#ed1c24"/>
</svg>
