<svg id="コンポーネント_1_1" data-name="コンポーネント 1 – 1" xmlns="http://www.w3.org/2000/svg" width="487.879" height="161.507" viewBox="0 0 487.879 161.507">
  <text id="石窯パン" transform="translate(166.145 40)" font-size="46" font-family="TsukuARdGothic-Regular, Tsukushi A Round Gothic"><tspan x="0" y="0">石窯パン</tspan></text>
  <path id="パス_6" data-name="パス 6" d="M117.377,303.332Q111.8,302.9,109.223,300a9.125,9.125,0,0,1-2.573-6.126,10.142,10.142,0,0,1,1.078-4.087l-.218.428V199.908a1.661,1.661,0,0,1-.981.105,3.509,3.509,0,0,0-.985-.105,10.933,10.933,0,0,1-7.445-2.475,7.79,7.79,0,0,1-2.845-6.126q0-4.729,5.27-9.029a50.874,50.874,0,0,1,12.793-7.422,96.126,96.126,0,0,1,15.591-4.943,63.516,63.516,0,0,1,13.653-1.829,48.669,48.669,0,0,1,18.167,3.223A45.361,45.361,0,0,1,174.49,179.7a37.292,37.292,0,0,1,8.71,11.392,27.711,27.711,0,0,1,3.008,12.042,30.712,30.712,0,0,1-4.3,15.163,45.98,45.98,0,0,1-11.181,13.221q10.321,5.593,15.377,13.762a31.068,31.068,0,0,1,2.8,28.6,40.568,40.568,0,0,1-6.219,10.753,47.6,47.6,0,0,1-9.333,8.815,45.536,45.536,0,0,1-11.364,6.021,79.586,79.586,0,0,1-15.976,3.223,165.947,165.947,0,0,1-16.836.864h-5.791c-1.864,0-3.795-.078-5.791-.218Zm10.991-79.991q3.007,0,5.807.113t5.807.323a31.935,31.935,0,0,0,7.095-1.615,40.954,40.954,0,0,0,8.278-3.763,25.245,25.245,0,0,0,6.772-5.8,12.255,12.255,0,0,0,2.794-7.959,13.61,13.61,0,0,0-2.148-7.737,17.142,17.142,0,0,0-5.589-5.27,29.423,29.423,0,0,0-7.527-3.121,32.207,32.207,0,0,0-8.173-1.074,39.974,39.974,0,0,0-13.116,2.152Zm34.4,26.449a40.4,40.4,0,0,0-10.107-4.62,62.525,62.525,0,0,0-11.4-2.257c-2.008.288-4.087.533-6.235.751s-4.374.323-6.667.323v40.639q4.729,0,11.828-.537a57.52,57.52,0,0,0,13.653-2.689,31.737,31.737,0,0,0,11.29-6.34q4.729-4.2,4.729-11.508a17.826,17.826,0,0,0-1.716-7.846A14.7,14.7,0,0,0,162.772,249.791Z" transform="translate(-95.255 -144.623)" fill="#ed1c24"/>
  <path id="パス_7" data-name="パス 7" d="M131.68,201.713a18.02,18.02,0,0,1-5.7-4.627,8.209,8.209,0,0,1-1.611-4.849,8.072,8.072,0,0,1,2.9-6.247,11.017,11.017,0,0,1,7.609-2.588,19.552,19.552,0,0,1,7.34,1.724,25.951,25.951,0,0,1,6.92,4.09,67.291,67.291,0,0,1,13.4-8.613,32.792,32.792,0,0,1,14.3-3.238,30.9,30.9,0,0,1,6.558,1.078,36.266,36.266,0,0,1,8.6,3.331,27.7,27.7,0,0,1,7.418,5.807,11.915,11.915,0,0,1,3.226,8.278,7.951,7.951,0,0,1-2.9,6.344,10.406,10.406,0,0,1-6.986,2.471,8.894,8.894,0,0,1-4.947-1.253,36.175,36.175,0,0,1-3.873-2.938,24.9,24.9,0,0,0-3.545-2.829,6.955,6.955,0,0,0-3.763-1.362,12.312,12.312,0,0,0-5.589,1.716,54.8,54.8,0,0,0-6.453,4.086,71.454,71.454,0,0,0-6.344,5.266q-3.117,2.913-5.266,5.056v56.335c-.144,3.588-1.315,6.235-3.51,7.959a11.11,11.11,0,0,1-6.92,2.58,10.362,10.362,0,0,1-6.811-2.479c-1.989-1.654-3.2-4.125-3.616-7.434V201.931Z" transform="translate(-11.054 -117.784)" fill="#ed1c24"/>
  <path id="パス_8" data-name="パス 8" d="M221.02,245.936a14.868,14.868,0,0,1,6.34-1.074,10.584,10.584,0,0,1,4.947,1.5,9.585,9.585,0,0,1,3.226,3.335,8.666,8.666,0,0,1,1.183,4.406,8.265,8.265,0,0,1-1.506,4.624,14.507,14.507,0,0,1-4.729,4.192,112.6,112.6,0,0,1-19.46,9.138,61.473,61.473,0,0,1-20.966,3.763A46.546,46.546,0,0,1,177.368,274a40.46,40.46,0,0,1-12.042-5.7,44.834,44.834,0,0,1-14.081-17.521,52.2,52.2,0,0,1-5.052-22.258,54.11,54.11,0,0,1,4.406-21.5,37.54,37.54,0,0,1,14.081-16.774,71.448,71.448,0,0,1,16.774-8.6,55.256,55.256,0,0,1,18.708-3.226,47.472,47.472,0,0,1,10.1,1.078,26.754,26.754,0,0,1,8.819,3.76,30.6,30.6,0,0,1,11.824,14.731,25.179,25.179,0,0,1,1.72,9.033,25.573,25.573,0,0,1-.646,5.8,16.162,16.162,0,0,1-2.362,5.375,29.786,29.786,0,0,1-8.819,8.924,70.846,70.846,0,0,1-12.256,6.558,110.673,110.673,0,0,1-13.762,4.729q-7.093,1.938-13.33,3.444-6.667,1.722-8.492,2.148a14.878,14.878,0,0,1-2.257.432,23.985,23.985,0,0,0,8.6,9.889q5.593,3.66,13.762,3.012a38.712,38.712,0,0,0,14.3-3.981A142.927,142.927,0,0,0,221.02,245.936Zm-39.565-43.224a24.546,24.546,0,0,0-10.535,9.784,31.13,31.13,0,0,0-3.872,13.657c.432-.14,1.183-.358,2.257-.646s2.689-.751,4.842-1.4,5.231-1.537,9.243-2.685q2.148-.642,6.453-1.829t8.706-2.791a53.962,53.962,0,0,0,8.173-3.763,12.073,12.073,0,0,0,5.052-4.733q.426-6.229-2.794-8.6a12.732,12.732,0,0,0-7.741-2.362,34.049,34.049,0,0,0-10.535,1.825A82.422,82.422,0,0,0,181.455,202.712Z" transform="translate(52.056 -114.747)" fill="#ed1c24"/>
  <path id="パス_9" data-name="パス 9" d="M260.931,262.754a9.691,9.691,0,0,1,.533,6.13,8.718,8.718,0,0,1-3.008,4.729,10.4,10.4,0,0,1-5.7,2.152,13.477,13.477,0,0,1-7.313-1.611c-1.148-1.152-2.257-2.331-3.331-3.549a27.508,27.508,0,0,1-2.689-3.546q-7.741,5.8-14.513,7.418a63.793,63.793,0,0,1-14.727,1.611,53.564,53.564,0,0,1-11.29-1.183,33.158,33.158,0,0,1-22.686-18.6,41.818,41.818,0,0,1-3.44-16.774,53.605,53.605,0,0,1,2.689-17.089,61.109,61.109,0,0,1,7.418-15.054,76.947,76.947,0,0,1,10.858-12.8,88,88,0,0,1,13.221-10.317,36.344,36.344,0,0,1,4.2-1.938,60.95,60.95,0,0,1,6.126-2.039,56.179,56.179,0,0,1,7.095-1.506,48.78,48.78,0,0,1,7.1-.541,40.815,40.815,0,0,1,11.936,1.615q5.266,1.617,7.632,7.85v10.749q0,4.3-.109,7.2t-.105,4.838v3.654q0,7.531.428,15.591t1.506,15.8a21.5,21.5,0,0,0,2.039,5.593,54.533,54.533,0,0,0,3.335,5.807h-.214c1,1.576,1.829,2.868,2.471,3.869S261.215,262.47,260.931,262.754ZM231.9,247.486a91.694,91.694,0,0,1-2.152-15.587q-.432-8.062-.428-16.019,0-5.587.214-10.1t.214-8.819a29.065,29.065,0,0,0-7.414,1.938q-3.771,1.506-5.274,2.148a33.546,33.546,0,0,0-10.426,7.313A43.8,43.8,0,0,0,199,218.892a49.378,49.378,0,0,0-4.406,12.147,31.174,31.174,0,0,0-.319,12.365,14.729,14.729,0,0,0,3.328,7.85,17.775,17.775,0,0,0,6.344,4.729,19.248,19.248,0,0,0,7.85,1.611,25.335,25.335,0,0,0,8.064-1.288A101.634,101.634,0,0,0,231.9,247.486Z" transform="translate(128.903 -115.227)" fill="#ed1c24"/>
  <path id="パス_10" data-name="パス 10" d="M285.616,288.155a14.642,14.642,0,0,1,2.047,3.869,10.975,10.975,0,0,1,.533,3.226,8.67,8.67,0,0,1-2.685,6.34,9.442,9.442,0,0,1-6.99,2.689,12.146,12.146,0,0,1-8.815-3.872l-2.58-2.58a41.316,41.316,0,0,1-14.085,7.636,54.512,54.512,0,0,1-16.451,2.471,43.127,43.127,0,0,1-17.412-3.655A34.191,34.191,0,0,1,205.2,293.1a44.123,44.123,0,0,1-6.021-12.9,50.678,50.678,0,0,1-1.934-13.762,74.873,74.873,0,0,1,1.506-14.941,53.485,53.485,0,0,1,4.943-14.085,35.838,35.838,0,0,1,7.741-9.893,52.82,52.82,0,0,1,10.535-7.527,67.777,67.777,0,0,1,11.181-4.515,46.515,46.515,0,0,1,12.042-2.148q4.729,0,9.247.105a40.376,40.376,0,0,1,8.815,1.183q0-6.013-.105-10.858t-.105-9.352q0-6.667-.109-11.29t-.109-6.772a11.646,11.646,0,0,1,3.978-6.772,10.4,10.4,0,0,1,6.558-2.257,10.814,10.814,0,0,1,6.344,2.039,12.516,12.516,0,0,1,4.41,6.344V286.217l1.292,1.72Zm-22.145-12.477v-19.46q0-5.482-.105-10.858t-.113-9.457l-2.576-2.152q-2.8-.642-5.593-1.074a35.218,35.218,0,0,0-5.379-.432,39.871,39.871,0,0,0-9.675,1.183,30.068,30.068,0,0,0-8.815,3.764,26.831,26.831,0,0,0-7.095,6.558A27.6,27.6,0,0,0,219.6,253.1q-3.444,10.964-1.074,18.919t8.383,11.828a22.487,22.487,0,0,0,14.3,3.226q8.272-.642,16.661-7.095Z" transform="translate(199.682 -146.859)" fill="#ed1c24"/>
</svg>
